<svg id="SvgjsSvg1051" width="288" height="288" xmlns="http://www.w3.org/2000/svg" version="1.1" xmlns:xlink="http://www.w3.org/1999/xlink" xmlns:svgjs="http://svgjs.com/svgjs"><defs id="SvgjsDefs1052"></defs><g id="SvgjsG1053"><svg xmlns="http://www.w3.org/2000/svg" enable-background="new 0 0 512 512" viewBox="0 0 512 512" width="288" height="288"><path fill="#ffffff" d="M216 51h-80c-5.523 0-10 4.477-10 10s4.477 10 10 10h80c5.523 0 10-4.477 10-10S221.523 51 216 51zM376 51h-80c-5.522 0-10 4.477-10 10s4.478 10 10 10h80c5.522 0 10-4.477 10-10S381.522 51 376 51z" class="color3c3b3d svgShape"></path><path fill="#ffffff" d="M125.751 78.784C124.717 74.231 120.669 71 116 71s-8.717 3.231-9.751 7.784l-50 220c-1.224 5.385 2.15 10.743 7.535 11.967 5.383 1.226 10.743-2.148 11.968-7.535L116 126.122l40.249 177.094c1.055 4.64 5.177 7.786 9.742 7.786.734 0 1.479-.081 2.226-.251 5.385-1.224 8.759-6.582 7.535-11.967L125.751 78.784zM455.751 298.784l-50-220C404.717 74.231 400.669 71 396 71s-8.717 3.231-9.751 7.784l-50 220c-1.225 5.385 2.149 10.743 7.535 11.967 5.39 1.225 10.744-2.15 11.967-7.535L396 126.122l40.249 177.094c1.054 4.64 5.177 7.786 9.742 7.786.733 0 1.479-.081 2.225-.251C453.602 309.527 456.976 304.169 455.751 298.784z" class="color747371 svgShape"></path><path fill="#ffffff" d="M206 301v10c0 49.71-40.29 90-90 90s-90-40.29-90-90v-10h40 100H206zM486 301v10c0 49.71-40.29 90-90 90s-90-40.29-90-90v-10h40 100H486z" class="color5b5a57 svgShape"></path><path fill="#ffffff" d="M116 41c11.05 0 20 8.95 20 20s-8.95 20-20 20-20-8.95-20-20S104.95 41 116 41zM396 41c11.05 0 20 8.95 20 20s-8.95 20-20 20-20-8.95-20-20S384.95 41 396 41z" class="color747371 svgShape"></path><circle cx="256" cy="61" r="40" fill="#ffffff" class="color3c3b3d svgShape"></circle><path fill="#ffffff" d="M336,471h-70V101c0-5.523-4.478-10-10-10c-5.523,0-10,4.477-10,10v370h-70
				c-5.523,0-10,4.478-10,10s4.477,10,10,10h160c5.522,0,10-4.478,10-10S341.522,471,336,471z" class="color323133 svgShape"></path></svg></g></svg>